<svg version="1.1" xmlns="http://www.w3.org/2000/svg" style="display: block;" viewBox="0 0 2048 2048" width="1024" height="1024" preserveAspectRatio="none">
<path transform="translate(0,0)" fill="rgb(28,35,93)" d="M 213.002 213.403 C 228.525 218.435 248.707 227.047 264.234 233.218 L 351.22 267.837 L 638.58 382.721 L 1537.2 741.473 L 1685.47 800.661 C 1695.64 804.734 1759.44 828.913 1761.86 833.366 C 1753.38 835.548 1725.44 849.168 1715.09 853.835 L 1622.35 895.07 L 1440.87 975.89 C 1401.71 993.174 1357.58 1011.46 1319.55 1030.19 L 1386.8 1097.24 C 1395.6 1106.02 1411.11 1122.47 1420.27 1129.92 C 1408.69 1132.86 1394.01 1134.85 1381.74 1137.65 C 1356.64 1143.38 1337.75 1150.51 1314.33 1160.62 C 1278.63 1125.18 1243.11 1089.55 1207.79 1053.74 C 1192.29 1038 1168.91 1015.65 1154.75 999.313 C 1163.34 994.807 1176.37 989.511 1185.65 985.408 L 1246.95 958.262 C 1327.53 922.92 1407.84 886.952 1487.86 850.36 C 1493.91 847.541 1515.9 839.276 1518.81 836.421 C 1517.39 835.033 1409.15 792.354 1401.59 789.319 L 753.978 530.505 L 487.209 423.795 C 449.017 408.633 409.085 391.639 370.72 377.514 L 379.053 400.577 L 644.758 1163.87 L 733.874 1418.56 C 748.676 1460.91 767.156 1519.21 783.988 1559.51 C 804.546 1522.09 826.039 1475.01 845.529 1436.02 L 972.711 1182.92 C 984.466 1192.7 1006.82 1216.4 1018.31 1227.93 L 1107.12 1316.94 C 1114.96 1324.71 1135.92 1347.54 1143.93 1353 C 1133.22 1375.06 1106.98 1417.98 1093.62 1439.23 C 1061.93 1408.64 1028.98 1374.34 997.985 1342.84 C 983.253 1370.86 969.064 1400.92 954.878 1429.37 L 871.055 1597.26 L 805.824 1727.86 C 793.162 1753.24 779.518 1779.65 767.78 1805.37 C 757.433 1772.86 744.498 1737.95 733.175 1705.5 L 656.77 1486.62 L 353.086 613.804 L 261.573 352.523 C 245.456 306.526 228.412 259.537 213.002 213.403 z"/>
<path transform="translate(0,0)" fill="rgb(28,35,93)" d="M 1200.72 1383.49 C 1206.06 1386.66 1229.79 1412.57 1236.1 1419.16 L 1349.04 1538.68 C 1325.04 1539.11 1288.49 1543.4 1263.86 1545.85 C 1267.17 1567.95 1280.78 1597.1 1292.59 1615.76 C 1321.14 1661.07 1366.55 1693.16 1418.8 1704.92 C 1468.3 1715.59 1520.01 1706.13 1562.52 1678.63 C 1610.9 1647.78 1642.17 1598.64 1654.27 1543.05 C 1671.2 1561.35 1699.25 1588.73 1717.4 1606.17 C 1725.03 1594.86 1730.7 1582.08 1738.25 1570.55 C 1733.3 1586.84 1729.49 1598.41 1723.04 1614.05 C 1684.42 1702.73 1613.12 1767.35 1517.11 1787.42 C 1443.82 1802.58 1367.5 1787.98 1304.97 1746.84 C 1235.75 1701.07 1194.13 1634.04 1178.04 1553.61 L 1091.1 1562.33 C 1127.87 1504.44 1164.62 1442.21 1200.72 1383.49 z"/>
<path transform="translate(0,0)" fill="rgb(28,35,93)" d="M 1445.34 1192.38 C 1578.58 1187.45 1689.08 1264.06 1730.43 1391.61 C 1759.24 1386.99 1789.22 1385.2 1817.99 1381.02 C 1784.29 1441.52 1745.33 1500.56 1711.5 1561.91 C 1704.75 1556.32 1692.11 1542.9 1685.37 1536.1 C 1668.06 1518.74 1650.87 1501.25 1633.82 1483.64 C 1612.21 1461.36 1580.99 1431.96 1561.43 1408.93 C 1574.02 1407.45 1586.63 1406.07 1599.24 1404.78 C 1612.3 1403.12 1631.19 1401.23 1643.98 1400.66 L 1643.58 1399.81 C 1617.54 1345.62 1580.19 1306.38 1522.6 1286.43 C 1455.49 1263.18 1379.64 1281.11 1328.49 1329.74 C 1301.17 1355.72 1285.3 1383.57 1273.19 1418.78 C 1251.28 1396.08 1230.17 1373.69 1207.93 1351.2 C 1258.18 1254.82 1336.91 1201.6 1445.34 1192.38 z"/>
</svg>